<svg xmlns="http://www.w3.org/2000/svg" xmlns:xlink="http://www.w3.org/1999/xlink" width="29" height="29" viewBox="0 0 29 29"><defs><path id="l093a" d="M78.98 503v12.98a8 8 0 0 1-8 7.99H58.02a8 8 0 0 1-7.99-8V503a8 8 0 0 1 8-7.99h12.97a8 8 0 0 1 7.99 8zm-2.57 12.98V503a5.43 5.43 0 0 0-5.42-5.42H58A5.43 5.43 0 0 0 52.6 503v12.98a5.43 5.43 0 0 0 5.42 5.42H71a5.43 5.43 0 0 0 5.42-5.42zm-4.45-6.49a7.47 7.47 0 1 1-14.94-.02 7.47 7.47 0 0 1 14.94.02zm-2.57 0a4.9 4.9 0 1 0-9.8.01 4.9 4.9 0 0 0 9.8-.01zm4.22-9.09a1.9 1.9 0 0 1 0 2.67 1.9 1.9 0 0 1-3.22-1.33 1.9 1.9 0 0 1 1.89-1.9c.5 0 .98.21 1.33.56z"/></defs><g><g transform="translate(-50 -495)"><use xlink:href="#l093a"/><use fill="#fff" xlink:href="#l093a"/></g></g></svg>