<svg xmlns="http://www.w3.org/2000/svg" xmlns:xlink="http://www.w3.org/1999/xlink" width="23" height="30" viewBox="0 0 23 30"><defs><path id="7biqa" d="M73.02 571.07a11.07 11.07 0 0 0-7.85-3.07c-4.66 0-7.52 1.95-9.1 3.6a10.76 10.76 0 0 0-3.07 7.36c0 3.34 1.36 5.9 3.64 6.85.16.06.31.1.46.1.48 0 .87-.32 1-.84l.33-1.35c.17-.63.03-.93-.33-1.37a4.43 4.43 0 0 1-.97-2.98c0-3.65 2.66-7.54 7.59-7.54 3.9 0 6.33 2.27 6.33 5.94 0 2.31-.48 4.45-1.37 6.03-.6 1.1-1.69 2.4-3.34 2.4a2.2 2.2 0 0 1-1.77-.83 2.12 2.12 0 0 1-.36-1.8c.18-.76.42-1.55.65-2.31.42-1.4.81-2.7.81-3.76 0-1.79-1.07-3-2.68-3-2.03 0-3.63 2.12-3.63 4.83 0 1.32.35 2.32.5 2.7L57.8 591c-.16.73-1.17 6.48.5 6.94 1.87.52 3.54-5.09 3.71-5.72l.92-3.66c.9.89 2.36 1.5 3.78 1.5a8.36 8.36 0 0 0 6.76-3.47c1.64-2.17 2.54-5.2 2.54-8.51 0-2.6-1.09-5.15-2.98-7.02z"/></defs><g><g transform="translate(-53 -568)"><use xlink:href="#7biqa"/><use fill="#fff" xlink:href="#7biqa"/></g></g></svg>