<svg xmlns="http://www.w3.org/2000/svg" xmlns:xlink="http://www.w3.org/1999/xlink" width="45" height="32" viewBox="0 0 45 32"><defs><path id="f5uja" d="M86.5 646.95v.02c0 6.42-.62 10.12-1.86 12.22-1.2 2.13-2.49 2.52-5.12 2.7-2.64.15-9.25.24-14.99.24s-12.36-.09-15-.24c-2.62-.18-3.92-.57-5.12-2.7-1.23-2.1-1.86-5.8-1.86-12.22v-.02c0-6.46.63-10.12 1.86-12.25 1.2-2.13 2.5-2.52 5.13-2.67 2.63-.18 9.25-.25 15-.25 5.73 0 12.34.07 14.98.25 2.63.15 3.93.54 5.12 2.67 1.24 2.13 1.87 5.8 1.87 12.25zm-13.73 0l-13.74-8.28v16.56z"/></defs><g><g transform="translate(-42 -631)"><use xlink:href="#f5uja"/><use fill="#fff" xlink:href="#f5uja"/></g></g></svg>